<svg xmlns="http://www.w3.org/2000/svg" viewBox="100 0 250 250">
  <path d="M 230.93 117.642 L 225.43 40.642 C 225.22 37.762 222.818 35.534 219.93 35.542 L 197.93 35.542 C 197.93 18.606 179.597 8.022 164.93 16.49 C 158.123 20.419 153.93 27.682 153.93 35.542 L 131.93 35.542 C 129.042 35.534 126.64 37.762 126.43 40.642 L 120.93 117.642 C 120.697 120.834 123.229 123.551 126.43 123.542 L 225.43 123.542 C 228.631 123.551 231.163 120.834 230.93 117.642 Z M 175.93 19.042 C 185.03 19.042 192.43 26.442 192.43 35.542 L 159.43 35.542 C 159.43 26.442 166.83 19.042 175.93 19.042 Z M 126.43 118.042 L 131.93 41.042 L 219.93 41.042 L 225.43 118.042 L 126.43 118.042 Z" fill="#fff"></path>
  <path d="M 148.556 89.145 C 146.468 90.538 147.164 93.186 151.618 94.44 C 156.212 95.972 161.223 96.39 166.095 95.555 L 166.791 95.415 L 166.791 90.677 L 162.059 92.21 C 160.248 92.768 158.44 92.907 156.63 92.489 C 155.237 92.07 155.516 91.235 157.186 90.538 L 166.791 87.194 L 166.791 82.038 L 153.428 86.636 C 151.686 87.22 150.044 88.066 148.556 89.145 Z M 180.85 68.243 L 180.85 81.76 C 186.558 84.546 191.012 81.76 191.012 74.513 C 191.012 67.128 188.367 63.784 180.711 61.136 C 176.674 59.743 172.499 58.489 168.322 57.652 L 168.322 97.923 L 178.067 100.85 L 178.067 66.988 C 178.067 65.456 178.067 64.341 179.18 64.759 C 180.711 65.177 180.85 66.71 180.85 68.243 Z M 198.946 85.94 C 192.863 83.855 186.269 83.806 180.154 85.801 L 179.737 85.94 L 179.737 91.374 L 188.785 88.029 C 190.595 87.473 192.404 87.333 194.214 87.752 C 195.606 88.169 195.327 89.005 193.657 89.702 L 179.737 94.858 L 179.737 100.153 L 198.946 93.046 C 200.338 92.489 201.592 91.793 202.705 90.677 C 203.679 89.284 203.262 87.333 198.946 85.94 Z" fill="#fff"></path>
</svg>
